<svg xmlns="http://www.w3.org/2000/svg" width="520" height="140" viewBox="0 0 520 140" role="img" aria-label="Support SmartEnergyHub development">
  <defs>
    <linearGradient id="bg" x1="0%" y1="0%" x2="100%" y2="100%">
      <stop offset="0%" stop-color="#0f172a"/>
      <stop offset="100%" stop-color="#1e293b"/>
    </linearGradient>
    <linearGradient id="accent" x1="0%" y1="0%" x2="100%" y2="0%">
      <stop offset="0%" stop-color="#6366f1"/>
      <stop offset="50%" stop-color="#0ea5e9"/>
      <stop offset="100%" stop-color="#22c55e"/>
    </linearGradient>
    <filter id="glow" x="-20%" y="-20%" width="140%" height="140%">
      <feGaussianBlur stdDeviation="2" result="blur"/>
      <feMerge>
        <feMergeNode in="blur"/>
        <feMergeNode in="SourceGraphic"/>
      </feMerge>
    </filter>
  </defs>
  <rect width="520" height="140" rx="16" fill="url(#bg)"/>
  <rect x="1" y="1" width="518" height="138" rx="15" fill="none" stroke="url(#accent)" stroke-width="1.5" opacity="0.85"/>
  <circle cx="68" cy="70" r="28" fill="#6366f1" opacity="0.15"/>
  <path fill="#f472b6" filter="url(#glow)" d="M68 52c-6 0-11 5-11 11 0 8 11 18 11 18s11-10 11-18c0-6-5-11-11-11z">
    <animate attributeName="opacity" values="1;0.75;1" dur="2.5s" repeatCount="indefinite"/>
  </path>
  <text x="110" y="52" fill="#f8fafc" font-family="system-ui,Segoe UI,sans-serif" font-size="18" font-weight="700">Support SmartEnergyHub</text>
  <text x="110" y="78" fill="#94a3b8" font-family="system-ui,Segoe UI,sans-serif" font-size="13">HA Energie Rom‚nia ∑ integrri gratuite ∑ contribuie voluntar</text>
  <rect x="110" y="92" width="168" height="32" rx="8" fill="url(#accent)"/>
  <text x="194" y="113" fill="#ffffff" font-family="system-ui,Segoe UI,sans-serif" font-size="13" font-weight="600" text-anchor="middle">d Support Development</text>
</svg>
